<svg xmlns="http://www.w3.org/2000/svg" xmlns:xlink="http://www.w3.org/1999/xlink" viewBox="0 0 483.61 645.46"><defs><linearGradient id="a" x1="22.15" y1="703.04" x2="402.15" y2="45.04" gradientUnits="userSpaceOnUse"><stop offset="0" stop-color="#f7931e"/><stop offset="0.16" stop-color="#f6a03b"/><stop offset="0.52" stop-color="#f5c185"/><stop offset="1" stop-color="#f2f2f2"/></linearGradient><radialGradient id="b" cx="284.07" cy="458.38" r="288.83" gradientUnits="userSpaceOnUse"><stop offset="0" stop-color="#f68b1f"/><stop offset="0.41" stop-color="#ec6617"/><stop offset="0.54" stop-color="#e76416"/><stop offset="0.7" stop-color="#d85e15"/><stop offset="0.87" stop-color="#c15312"/><stop offset="1" stop-color="#a94910"/></radialGradient><radialGradient id="c" cx="284.07" cy="462.08" r="288.86" gradientTransform="translate(0 264.09) scale(1 0.48)" xlink:href="#b"/></defs><title>climber</title><rect width="483.56" height="645.46" style="fill:url(#a)"/><path d="M397.72,365.48c0,37.06-30.94,68-68,68s-68-31-68-68,30.95-68,68-68S397.72,328.41,397.72,365.48Z" style="fill:#f7931e;opacity:0.5"/><path d="M476.67,405.24c.95-1.89,3.71-3.22,6.88-3.14h.06V514.66H84.53V405.15c3.05-.25,7.67.66,8.83,4.07a6.62,6.62,0,0,1,4.3.06,6.14,6.14,0,0,1,6.71-.69,6.62,6.62,0,0,1,2.58-.34c.57-5.05,9.13-4.93,12.15-2.66,2.8-4.14,11.24-4.08,14.31-.38,3.09-2.27,14-1.83,11.93,4.09a10,10,0,0,1,8.4-.64c5.09-2.22,18.06,3,10,8.15a3.83,3.83,0,0,1,2.14,1.6c3.49-1.29,14.89.47,11.33,6.49,3.21-.58,10.79.77,10.08,5.58,2.95,1.06,5.26,4.59,1.82,7.09,1.75.47,4.69,2.44,4.27,4.78,2.87-.47,10.88,1.55,8.14,6.12,3.33-.58,12.66,1.74,9.44,7a9.75,9.75,0,0,1,4-.74c-1.2-1.85-.73-4.07,1.48-5.64a10.87,10.87,0,0,1,7.82-1.53A3.73,3.73,0,0,1,226,444a9.65,9.65,0,0,1,9.81-.25,5.77,5.77,0,0,1,1,.79,3.84,3.84,0,0,1,1.85-3.21,8.08,8.08,0,0,1,3.15-1.28,4.84,4.84,0,0,1,2-2.73,11.1,11.1,0,0,1,11.28-.29,4.72,4.72,0,0,1,2.56,3.73,6.77,6.77,0,0,1,3.23.05,5.07,5.07,0,0,1,1.9-2.33,11.1,11.1,0,0,1,11.28-.29,6.05,6.05,0,0,1,1.75,1.55,5.91,5.91,0,0,1,1.24-1.16,11.1,11.1,0,0,1,11.28-.29c.19.12.37.24.54.36a9.77,9.77,0,0,1,6.93,1,4.24,4.24,0,0,1,2.2,3,9.84,9.84,0,0,1,7.65.79,6.48,6.48,0,0,1,.57.39,5.2,5.2,0,0,1,1-.9,9.65,9.65,0,0,1,9.81-.25,5.31,5.31,0,0,1,1.54,1.37,6,6,0,0,1,1.19-1.1,11.1,11.1,0,0,1,11.28-.29,4.68,4.68,0,0,1,2.56,3.85,6.74,6.74,0,0,1,2-.14,5,5,0,0,1,1.92-2.39,11.1,11.1,0,0,1,11.28-.29,5.42,5.42,0,0,1,2.27,2.45,10.14,10.14,0,0,1,6.17.46,11.6,11.6,0,0,1,3.83-.53,10,10,0,0,1,5.62,1.75,4.64,4.64,0,0,1,2.51-1.34,3.83,3.83,0,0,1-.85-2.59c.18-2.9,3.9-5.16,8.3-5a11.56,11.56,0,0,1,2.87.43,3.55,3.55,0,0,1-.2-1.41c.18-2.9,3.9-5.16,8.31-5l.77,0a8.28,8.28,0,0,1,6.24-2.21,9,9,0,0,1,4.58,1.31c1.14-1.64,3.7-2.75,6.6-2.67.28,0,.55,0,.82.06a3.12,3.12,0,0,1-.13-1.11c.16-2.52,3.39-4.49,7.22-4.38a9.93,9.93,0,0,1,2.53.39,3.53,3.53,0,0,1-.18-1.34c.18-2.9,3.9-5.16,8.3-5a10,10,0,0,1,5.74,1.84,4,4,0,0,1,1.36-1,3.83,3.83,0,0,1-.89-2.64c.18-2.9,3.9-5.16,8.31-5a11,11,0,0,1,4.15.9,8.17,8.17,0,0,1,6.33-2.32,9.11,9.11,0,0,1,4.32,1.15,5.1,5.1,0,0,1,4.29-1.74,6.59,6.59,0,0,1,1.18.13c.21-2.88,3.92-5.12,8.3-5a10.36,10.36,0,0,1,5.15,1.43,6.27,6.27,0,0,1,2.75-.52A6.58,6.58,0,0,1,476.67,405.24Z" style="fill-rule:evenodd;opacity:0.6000000000000001;fill:url(#b)"/><path d="M476.67,461.77c.95-.91,3.71-1.56,6.88-1.52h.06v54.4H84.53V461.73c2.27-.09,7.25-.29,8.83,2a13.39,13.39,0,0,1,4.3,0,11.8,11.8,0,0,1,6.71-.34,13.76,13.76,0,0,1,2.58-.17c.75-3.21,10.07-2,12.15-1.29,3.36-2.4,10.82-2.22,14.31-.18,1.73-.61,13.8-.6,11.93,2a18.69,18.69,0,0,1,8.4-.31c2.14-.45,17.91,1.49,10,3.94a4.74,4.74,0,0,1,2.14.77c1.46-.26,14.43.61,11.33,3.14,1.18-.11,10.93-.12,10.08,2.7a3.9,3.9,0,0,1,3.61,1.94l-1.8,1.48c-.38,0,4.84.75,4.27,2.31.76-.06,10.8.79,8.14,3,.92-.07,12.55.92,9.44,3.41a19.14,19.14,0,0,1,4-.36c-1.2-.9-.73-2,1.48-2.73a21,21,0,0,1,7.82-.74c-.18-.6.42-1.23,1.82-1.71a18.92,18.92,0,0,1,9.81-.12,7.07,7.07,0,0,1,1,.38c0-.55.57-1.11,1.85-1.55a13.94,13.94,0,0,1,3.15-.62,3.47,3.47,0,0,1,2-1.32,21.74,21.74,0,0,1,11.28-.14c1.65.49,2.51,1.14,2.56,1.8a13.87,13.87,0,0,1,3.23,0,4,4,0,0,1,1.9-1.13,21.73,21.73,0,0,1,11.28-.14,6.72,6.72,0,0,1,1.75.75,6.37,6.37,0,0,1,1.24-.56,21.74,21.74,0,0,1,11.28-.14l.54.18a19.21,19.21,0,0,1,6.93.47c1.32.39,2.05.9,2.2,1.43a19.49,19.49,0,0,1,7.65.38l.57.19a5.57,5.57,0,0,1,1-.44,18.9,18.9,0,0,1,9.81-.12,5.89,5.89,0,0,1,1.54.66,6.52,6.52,0,0,1,1.19-.53,21.74,21.74,0,0,1,11.28-.14c1.69.5,2.55,1.18,2.56,1.86a14,14,0,0,1,2-.07,3.92,3.92,0,0,1,1.92-1.16,21.7,21.7,0,0,1,11.28-.14,4.87,4.87,0,0,1,2.27,1.19,20.52,20.52,0,0,1,6.17.22,23.41,23.41,0,0,1,3.83-.26,18.41,18.41,0,0,1,5.62.84,7.07,7.07,0,0,1,2.51-.65c-.6-.37-.91-.8-.85-1.25.18-1.4,3.9-2.49,8.3-2.44a23.45,23.45,0,0,1,2.87.21.94.94,0,0,1-.2-.68c.18-1.4,3.9-2.49,8.31-2.44l.77,0a14.34,14.34,0,0,1,6.24-1.07,16.67,16.67,0,0,1,4.58.63c1.14-.79,3.7-1.33,6.6-1.29l.82,0a.79.79,0,0,1-.13-.53c.16-1.22,3.39-2.17,7.22-2.12a19.74,19.74,0,0,1,2.53.19.92.92,0,0,1-.18-.65c.18-1.4,3.9-2.49,8.3-2.43a18,18,0,0,1,5.74.89,5.28,5.28,0,0,1,1.36-.46c-.62-.38-1-.82-.89-1.28.18-1.4,3.9-2.49,8.31-2.43a21.34,21.34,0,0,1,4.15.43,14,14,0,0,1,6.33-1.12,17.12,17.12,0,0,1,4.32.55,8.38,8.38,0,0,1,4.29-.84c.41,0,.8,0,1.18.07.21-1.39,3.92-2.48,8.3-2.42a19.36,19.36,0,0,1,5.15.69,12.42,12.42,0,0,1,2.75-.25C475.86,461.71,476.28,461.73,476.67,461.77Z" style="fill-rule:evenodd;fill:url(#c)"/><path d="M203.5,255a80.91,80.91,0,0,1,1.68-9.77l-.12-.09c-2-1.6-7.17-7.29-9.26-8.83-1.09-.79-2-2.76-2.73-3.74a9,9,0,0,1-.94-2.78c-.4-1.33-.9-2.65-1.4-4.11a19.48,19.48,0,0,0-.63-2c-.23-.52-1-1.08-1.42-1.82-.72-1.22-.92-2.44-1.89-3.16a15.24,15.24,0,0,0-2.38-1.15,7.44,7.44,0,0,0-1.31-.45,10.34,10.34,0,0,0-1.19-.47c-.53-.06-1,.3-1.7,0-.36.76.08,1.15.48,1.56a6,6,0,0,0,1.35,1c.47.22,1.08.14,1.51.32s.6.53,1,.83a3.45,3.45,0,0,1,1.67,2.14c.53,1.37.38,2.65.61,4.42-.66.25-1.61-2.16-2.83-2.39-.4-.07-1-.09-1.23.34-.72,1.23,1.76,2.83,2.39,3.68s.9,1.83,1.62,2.7c.19.25.6.4.74.63a11.15,11.15,0,0,1,.45,1.21,15.33,15.33,0,0,0,1.55,3.19c.57.72,1.38,1.32,2,2.11C194.53,242,200,251.46,203.5,255Z" style="fill:#eab39d;fill-rule:evenodd"/><path d="M166.44,227.89c-1.3,0-2.6-1.86-3.07-4.42-.5-2.76.16-5,1.54-5.28s2.82,1.67,3.32,4.4-.16,5-1.53,5.28A1.09,1.09,0,0,1,166.44,227.89Zm-1.28-8.84c-.81.14-1.33,2-.91,4.26s1.54,3.81,2.28,3.67,1.23-2,.81-4.24S165.91,219.06,165.16,219.06Z"/><path d="M165.85,226l36.26,56.2c.47.72,1.34-.11.88-.83-12.36-19.16-23.62-36.88-36-56-.46-.72-1.63-.06-1.15.67Z"/><path d="M165.78,225.52c-4.9,31.11-15.92,58-20.81,89.13-.13.84,1.16,1.2,1.29.35,4.89-31.12,15.92-58,20.82-89.13.14-.84-1.16-1.21-1.29-.35Z"/><path d="M238.32,357.42c-.37-.67-1.32-1-2.18-1.65-1.14-.85-1.49-2.1-3-1.79a18,18,0,0,1-.88-4.79,39.38,39.38,0,0,1-.34-5.15c0-1.83.36-3.73.29-5.69a17.53,17.53,0,0,0-1.52-6.19,11,11,0,0,0-.84-1.76c-.35-.53-.91-.86-1.2-1.45-.2-.39-.28-1-.45-1.47-.42-1.29-.75-2.87-1.08-4.39-.46-2.09-1-4.14-1.27-6.08-.45-3-.44-6.67-.89-10a12.68,12.68,0,0,0-.54-3.08,2.46,2.46,0,0,0-1.14-1.2c.24-.44.69-.65.87-1.17.28-.23.35.48.74.15.43-1.14,1.16-2.28,1.52-3.55.09-.34.07-.73.18-1.07s.38-.62.51-1a8.39,8.39,0,0,0,.37-2.14,4.55,4.55,0,0,0-.07-1.09c-.12-.4-.58-.49-.66-.91a17.65,17.65,0,0,1,.62-3c.12-.74.1-1.35.18-1.83.26-1.81.7-3.91.85-5.46.11-1,.06-2.23.12-3.09a21.38,21.38,0,0,0,.33-2.49,14.79,14.79,0,0,0-.29-2.21,19.27,19.27,0,0,0-1.86-5.13,5.28,5.28,0,0,1-.49-1c-.17-.57-.17-1.18-.27-1.71-.68-3.77-2.7-6.63-5.07-9.22a29,29,0,0,0-3.14-2.88,42,42,0,0,0-6.93-4.12c-2.49-1.11-7.41,2.26-10.15,4.33a1.5,1.5,0,0,0,.15.16,16.42,16.42,0,0,1-1.69,1l0,0H199a1.45,1.45,0,0,1-.22.06,9.12,9.12,0,0,1-1.71,0l-1.11,0a10.43,10.43,0,0,1-2-.05l-.27-.06-.24,0a10.92,10.92,0,0,1-5-2.1c-.12-.09-.26-.17-.39-.25l-.68-.44a19.14,19.14,0,0,0-3.5-1.59l-.84-.27-.33-.09-.07,0-.44-.14c-1.55-.56-3.3-1.47-5-2.24-.94-.37-1.9-.73-2.8-1l-.5-.14a6.89,6.89,0,0,1-2-.52h0l0,0a1.25,1.25,0,0,1-.51-.69,1.37,1.37,0,0,1,0-.38s0,0,0-.07,0-.13,0-.19a3,3,0,0,0,0-.35s0-.09,0-.14a13.2,13.2,0,0,0-.88-2.39v0a13.34,13.34,0,0,1-1.21-3.6l-.07-.18c-.08-.16-.22-.43-.4-.74s-.42-.61-.6-.89a7.66,7.66,0,0,1-.93-1.48l-.12-.11a4.34,4.34,0,0,0-3.43-1h0a.73.73,0,0,1-.53,0,2.25,2.25,0,0,1-1.12-.19,3.72,3.72,0,0,0-1.41-.06s0,0,0,.05c-.51,1,.21,1.1.71,1.53s.75.92,1.24,1.21c.28.16.72.16,1,.35s.53.81.88,1.16.89.63,1.09,1c.09.16.07.51.17.77.4,1.06,1.27,1.89.56,3.74-1.29.09-1.67-1.4-2.79-1.52-.51-.06-1.1.12-1.22.56s.4,1,1,1.43,1,.76,1.33,1c.8.74,1.09,1.57,2,2.21.28.2.67.24,1,.44,1,.7,1.33,2,2.42,2.74.67.47,1.49.72,2.15,1.14s1.27.88,1.89,1.35a73.41,73.41,0,0,0,7.63,5.35c.69.4,1.49.69,2.25,1.06s1.45.85,2.15,1.13c1,.41,2.3.72,3.5,1.17a24,24,0,0,0,7.64,1.83c.67,0,1.42,0,2.09,0a7.39,7.39,0,0,1,2,.37c.86.36,1.47,2,2,3a22.74,22.74,0,0,1,1.72,3.19c.24.72.39,1.61.68,2.42a10.34,10.34,0,0,0,1.26,2.64c.73,1,2.41,1.2,3.2,2.57a4.17,4.17,0,0,0-.53,1c-.06.31.13.67.07,1s-.47.87-.56,1.45a2.87,2.87,0,0,0,0,.84c0,.22.21.56.19.7-.08.4-.74.75-.88,1.18-.26.89.07,1.67-.21,2.24-.2.41-.68.44-1.07.74s-.46.54-.75.77a2.77,2.77,0,0,1-1,.49c-.37,0-.81-.65-1.18-.79-1.37-.51-3.33-.23-5.16-.41a20.57,20.57,0,0,1-4.91-1.31c-.26.13-.12.74-.42.8-2.46-.24-4.43-1.08-6.65-1.48a15.22,15.22,0,0,0-3.26-.31,6.48,6.48,0,0,0-1.29.39,11.74,11.74,0,0,0-4.82,2.14c-.12.09-.17.3-.28.4-.42.3-1,.42-1.41.7a10.2,10.2,0,0,0-1.93,1.83,8.14,8.14,0,0,0-1.49,2.29,3.94,3.94,0,0,0,.47,2.14c.1.22.39.58.66,1,.14.21.59.79.58,1,0,.4-1.08,1.44-1.54,2-3.33,3.74-6.76,6.92-10.15,10.51a4.77,4.77,0,0,1-1.84,1.51c0-.26-.23-.35-.36-.54-.27-.37-.51-1.3-.94-1.61-.2-.14-.56,0-.81-.16a3.1,3.1,0,0,1-.62-.66c-.18-.23-.18-.46-.35-.69a4.11,4.11,0,0,0-.62-.65c-.37-.28-.58-.11-.79-.49s0-.79,0-1.19a3.44,3.44,0,0,0-.4-1c-.2-.28-.15-.33-.26-.86-.25-1.37.66-3,.87-4.79a7.08,7.08,0,0,0-2.85-.86,23.07,23.07,0,0,0-1.69,6.22,13.58,13.58,0,0,0-.47,4.07c.06.54.36,1.12.49,1.73s.21,1.3.33,1.87c.63,3,1.12,5.92,2.09,9a4.89,4.89,0,0,0,.68,1.58c.47.21,2.17-.45,2.74-.58a19.05,19.05,0,0,0,2.66-.68c.75-.27,1.76-.65,1.4-1.45a11.12,11.12,0,0,0,2.56-2.27,25,25,0,0,1,2.35-2.55,28.85,28.85,0,0,1,5.5-4,39.34,39.34,0,0,0,5.89-3.63,15.06,15.06,0,0,0,4-4.49c.13-.25.17-.58.34-.88a11.73,11.73,0,0,1,1.53-2,8.73,8.73,0,0,1,2.14.45c1.9.53,3.88,1.42,5.51,2,1.19.46,2.39,1,3.65,1.35s2.73.65,4.1,1c.73.19,1.52.61,2.36.81a22.1,22.1,0,0,0,4.23.49c.59,2.08,1,4.07,1.7,6a18.23,18.23,0,0,1,1.42,6.17c.14.33.49,0,.72.24.61,2.17,1.49,4.3,2.25,6.43a14.33,14.33,0,0,0,.72,2.08,10,10,0,0,0,.82,1.08c.49.72.91,1.5,1.47,2.24a9.48,9.48,0,0,1,.82,1c.35.6.56,1.51.95,2.43a7,7,0,0,0,1.13,2.21,4.25,4.25,0,0,0,1.64.33,8.16,8.16,0,0,1,1.6,0c.35.17.88,1.88,1.09,2.54,1.31,3.77,2.26,7.16,3.31,11a21.82,21.82,0,0,1,.73,2.83c.14.9.16,2,.28,3.22a11.51,11.51,0,0,1,.19,3.22c-.08.27-.38.37-.48.62-.19.45,0,1.3-.19,1.82,0,.23-.19.23-.2.41,0,.38.13.82.14,1.19a3.78,3.78,0,0,1-.27,1.91c-.09.17-.28.33-.39.54a11.77,11.77,0,0,0-.39,1.64c-.09.3-.3.64-.44,1s-.2.7-.35,1-.52.65-.76,1-.37.79-.61,1.12c-.65,1-1.78,1.69-1.75,3.27a3.71,3.71,0,0,0,1,1.86c.81.9,1.84,1.9,3.64,1.44a7.32,7.32,0,0,0,1-.41,13.94,13.94,0,0,0,3.94-3.48c2-2.61,4-6.29,5.85-9.35C237.32,362,239.31,359.16,238.32,357.42Z" style="fill:#f7d7b7;fill-rule:evenodd"/><path d="M191.39,301.54c1.19.46,2.39,1,3.65,1.35s2.73.65,4.1,1c.73.19,1.52.61,2.36.81a22.1,22.1,0,0,0,4.23.49c.59,2.08,1,4.07,1.7,6a18.23,18.23,0,0,1,1.42,6.17,2.62,2.62,0,0,0,.48.83c.61,2.17,1.72,3.72,2.48,5.84a14.33,14.33,0,0,0,.72,2.08,10,10,0,0,0,.82,1.08c.49.72.91,1.5,1.47,2.24a9.48,9.48,0,0,1,.82,1c.35.6.56,1.51.95,2.43a7,7,0,0,0,1.13,2.21,4.25,4.25,0,0,0,1.64.33,8.16,8.16,0,0,1,1.6,0,72.59,72.59,0,0,0,8.13-5.77,2.6,2.6,0,0,1-.46-.63c-.2-.39-.28-1-.45-1.47-.42-1.29-.75-2.87-1.08-4.39-.46-2.09-1-4.14-1.27-6.08-.45-3-.44-6.67-.89-10a12.68,12.68,0,0,0-.54-3.08,2.46,2.46,0,0,0-1.14-1.2c.24-.44.69-.65.87-1.17.28-.23.35.48.74.15.35-.94.9-1.89,1.29-2.9L221.77,293,208,285.43a1.9,1.9,0,0,1-.11.9c-.2.41-.68.44-1.07.74s-.46.54-.75.77a2.77,2.77,0,0,1-1,.49c-.37,0-.81-.65-1.18-.79-1.37-.51-3.33-.23-5.16-.41a20.57,20.57,0,0,1-4.91-1.31c-.26.13-.52,0-.82,0-2.46-.24-4-.32-6.25-.71a15.22,15.22,0,0,0-3.26-.31,6.48,6.48,0,0,0-1.29.39,11.74,11.74,0,0,0-4.82,2.14c-.12.09-.17.3-.28.4-.42.3-1,.42-1.41.7a10.2,10.2,0,0,0-1.93,1.83,8.14,8.14,0,0,0-1.49,2.29,3.94,3.94,0,0,0,.47,2.14c.1.22.39.58.66,1,0,0,2.9,3.3,10.33,3.34a8.73,8.73,0,0,1,2.14.45C187.78,300,189.76,300.92,191.39,301.54Z"/><path d="M196.52,235.78a25.8,25.8,0,0,0-1,3.48,8.67,8.67,0,0,0,.39,1.4l-2.55,3,1.85,1.54s-.95,4.7.23,5.19,3.93,0,3.93,0l2,5.87s5.92-3.93,8.54-3.61l-.69-5.17-1-5.81-.81-2.87-5.74-2.37Z" style="fill:#f6c5ae"/><path d="M209.2,247.46s1.19-4.07,2.41-5.56,2-7.46-1.2-9.76-10.79-3.12-14.45,0c0,0-.68,4.95,3.32,5.56,0,0,2.51,1.42,1.56,5.56l1.38.29s1.47-4.09,3.33-3.48,1.77,4.7,2,5.87A2.3,2.3,0,0,0,209.2,247.46Z"/><path d="M202.21,243.55c-.22,1.42-.16,2.83,1.27,2.46,0,0-.64,4.27-4.07,4.5s-4.72.41-4.56-1.85c0,0,1.62,1.13,2.48.13s3.89-.32,3.5-5.54Z"/><path d="M206.81,287.08c-.33.23-.46.54-.75.77a6.3,6.3,0,0,1-.63.38,39.17,39.17,0,0,0,18.1,14.18c.22-.24.51.49.64.13s.31-.48.7-.8c.43-1.14,1.16-2.28,1.52-3.55.09-.34.07-.73.18-1.07s.38-.62.51-1a8.39,8.39,0,0,0,.37-2.14,4.55,4.55,0,0,0-.07-1.09c-.12-.4-.58-.49-.66-.91a17.65,17.65,0,0,1,.62-3c.12-.74.1-1.35.18-1.83.26-1.81.7-3.91.85-5.46.11-1,.06-2.23.12-3.09a21.38,21.38,0,0,0,.33-2.49,14.79,14.79,0,0,0-.29-2.21,18.57,18.57,0,0,0-1.36-5.1,5.9,5.9,0,0,1-.46-1.05c-.17-.57-.44-1.23-.54-1.75-.67-3.77-3-6.52-5.33-9.12a29,29,0,0,0-3.14-2.88,42,42,0,0,0-6.93-4.12c-2.49-1.11-7.41,2.26-10.15,4.33a1.5,1.5,0,0,0,.15.16,16.42,16.42,0,0,1-1.69,1l0,0H199a1.45,1.45,0,0,1-.22.06,9.12,9.12,0,0,1-1.71,0l-1.11,0c-.34,0-1.42-.38-1.8-.39l-.76,10.2c.64.1,2.91.07,3.63.11s1.45-.48,2.12-.43a10,10,0,0,1,2.22.07c.86.36,1.08,1,1.59,2a22.74,22.74,0,0,1,1.72,3.19c.24.72.39,1.61.68,2.42a10.34,10.34,0,0,0,1.26,2.64c.73,1,2.41,1.2,3.2,2.57a4.17,4.17,0,0,0-.53,1c-.06.31.13.67.07,1s-.47.87-.56,1.45a2.87,2.87,0,0,0,0,.84c0,.22.21.56.19.7-.08.4-.74.75-.88,1.18-.26.89.07,1.67-.21,2.24C207.68,286.74,207.2,286.77,206.81,287.08Z" style="fill:red;fill-rule:evenodd"/><path d="M230.14,300.53l-.29-.13c-3.43-1.71-3.34-6.91-3.33-7.13l.77,0c0,.05-.09,4.94,2.91,6.42,2.71,1.35,7.29-.48,13.24-5.26l2.48-1.47.39.67-2.43,1.44C237.83,300,233.19,301.79,230.14,300.53Z"/><path d="M204.64,284.42c-1.57-.65-3.09-1.76-2.72-2.66s2.23-.6,3.8,0,3.09,1.76,2.72,2.65S206.2,285.06,204.64,284.42Zm.78-1.89c-1.65-.68-2.67-.61-2.8-.46s.66,1,2.31,1.63,2.66.61,2.79.46S207.06,283.21,205.42,282.52Z"/><path d="M216.16,289.63a23.2,23.2,0,0,1-9-6.14l.2-.79c.06.08,6.79,8.21,20.45,8.53l0,.77A32.25,32.25,0,0,1,216.16,289.63Z"/><path d="M214.3,288.45a38.22,38.22,0,0,1-7.51-4.13l.47-.62c.11.08,10.69,7.92,20.92,6l.14.76C223.32,291.38,218.26,290.09,214.3,288.45Z"/><path d="M214.92,290.26c-3.62-1.5-6.79-3.18-7.94-6.2l.28-.88c2.79,7.33,20.25,9.46,20.42,9.48l.14.76A53.38,53.38,0,0,1,214.92,290.26Z"/><path d="M234.41,293.48a2.38,2.38,0,0,1-3.12,1.29l-2.28-.95a2.39,2.39,0,0,1-1.29-3.12h0a2.39,2.39,0,0,1,3.12-1.29l2.28.95a2.39,2.39,0,0,1,1.29,3.12Z"/><path d="M231.14,295.13l-2.28-.95a2.77,2.77,0,0,1,2.12-5.12l2.28.95a2.77,2.77,0,1,1-2.12,5.12Zm-.45-5.35a2,2,0,1,0-1.53,3.69l2.28.95a2,2,0,0,0,1.53-3.69Z"/><path d="M227.82,304h0l-.24-.11a2.37,2.37,0,0,1-1.27-1.68c-.65-3.06,3.52-8.38,3.7-8.61l.23-.29.3.22c1,.76,1,7.09-.27,9.44A1.82,1.82,0,0,1,227.82,304Zm2.44-9.45c-1,1.35-3.66,5.27-3.19,7.5a1.63,1.63,0,0,0,.87,1.16c.06,0,.14,0,.17.08.37.16.87.24,1.36-.51C230.73,300.94,230.68,296.09,230.27,294.6Z"/><path d="M160.46,310.66c0-.26-.23-.35-.36-.54-.27-.37-.51-1.3-.94-1.61-.2-.14-.56,0-.81-.16a3.1,3.1,0,0,1-.62-.66c-.18-.23-.18-.46-.35-.69a4.11,4.11,0,0,0-.62-.65c-.37-.28-.58-.11-.79-.49s0-.79,0-1.19a3.44,3.44,0,0,0-.4-1c-.2-.28-.15-.33-.26-.86-.25-1.37.66-3,.87-4.79a7.08,7.08,0,0,0-2.85-.86,23.07,23.07,0,0,0-1.69,6.22,13.58,13.58,0,0,0-.47,4.07c.06.54.36,1.12.49,1.73s.21,1.3.33,1.87c.63,3,1.12,5.92,2.09,9a4.89,4.89,0,0,0,.68,1.58c.47.21,2.17-.45,2.74-.58a19.05,19.05,0,0,0,2.66-.68c.75-.27,1.76-.65,1.4-1.45C158.1,313.3,160.46,310.66,160.46,310.66Z" style="fill:#3a1906"/><path d="M236.14,355.77c-1.14-.85-1.49-2.1-3-1.79l0-.07c-1.88,4.06-7,4.85-7,4.85-.19.45,0,1.3-.19,1.82,0,.23-.19.23-.2.41,0,.38.13.82.14,1.19a3.78,3.78,0,0,1-.27,1.91c-.09.17-.28.33-.39.54a11.77,11.77,0,0,0-.39,1.64c-.09.3-.3.64-.44,1s-.2.7-.35,1-.52.65-.76,1-.37.79-.61,1.12c-.65,1-1.78,1.69-1.75,3.27a3.71,3.71,0,0,0,1,1.86c.81.9,1.84,1.9,3.64,1.44a7.32,7.32,0,0,0,1-.41,13.94,13.94,0,0,0,3.94-3.48c2-2.61,4-6.29,5.85-9.35,1-1.64,3-4.52,2-6.25C237.95,356.75,237,356.43,236.14,355.77Z" style="fill:#3a1906"/><path d="M56.35,641.59c.52-1.77,1-3.51,1.57-5.28a27.5,27.5,0,0,0,1.31-3.84,15.4,15.4,0,0,1,1.14-4c.51-1.21.49-2.6,1.08-3.76,1.11-2.15,4.07-3.44,4.62-5.88.33-1.48-.42-2.63.5-4a27.07,27.07,0,0,0,1.79-2.17c.46-.82.27-1.06.51-1.83.92-2.93.74-6,1.29-9.07.32-1.76.59-3.53.88-5.3.24-1.47-.07-2.84.36-4.3a17,17,0,0,1,1.6-3.86c.69-1.08,1.13-2.09,1.73-3.16.25-.45.94-1.14,1-1.63s-.06-1.05.07-1.6c.27-1.07,1.37-2,1.63-3.1.42-1.93-.22-3.87.37-5.89.68-2.3.55-4.49,1.7-6.61,1.51-2.79,2.26-5.78,4-8.48a29,29,0,0,1,3.82-5.12c1-1,2.61-1.54,3-2.95a13,13,0,0,0,.12-3.37c0-6,1.2-11.27,2.58-17a27.26,27.26,0,0,1,.52-2.81A11.77,11.77,0,0,0,95,523.84a13.89,13.89,0,0,1,.61-3.12c.72-1.62,1.71-3.19,2.33-4.83.43-1.14,1.22-2.38,1.58-3.56a7.83,7.83,0,0,0,.1-1.7,18.55,18.55,0,0,1,.46-2.15,60,60,0,0,0,.64-6.42c.09-1.26.75-2.06,1.19-3.22.54-1.39.64-2.87,1.11-4.29a24.8,24.8,0,0,1,3.59-7.74,10.09,10.09,0,0,0,2.12-3.52,24.1,24.1,0,0,0,.54-5.12c.05-2.08,1.06-3.64,1.57-5.64a34.05,34.05,0,0,1,2.41-7.2c1-2,2.55-3.67,3.74-5.52,1.72-2.69,3.16-5.25,3.12-8.49-.07-5.44,1.22-10.7,2.86-15.88.65-2,1.66-4.11,1.69-6.22,0-1.09-.15-2.27,0-3.36.24-2.31,2-3.46,2.92-5.46a22.62,22.62,0,0,0,1.71-4.37c.73-3.77-.61-6.94-1.91-10.36s.87-7.23,2.31-10.18a16,16,0,0,0,.71-2.14,11.13,11.13,0,0,1,1-2.27,9.89,9.89,0,0,0,1.28-4.56c-.06-3.73-.31-7.74.7-11.26.27-.93,1-1.4,1.11-2.43s-.14-2-.1-3a13.55,13.55,0,0,1,1-4.39,10.43,10.43,0,0,0,.61-5,50.78,50.78,0,0,1-.52-6.48,8.37,8.37,0,0,1,.44-2.69c.16-.59,0-1.19.1-1.74a26.94,26.94,0,0,1,1.86-3.5,37.65,37.65,0,0,0,2.59-5.73c.55-2,1.24-3.47,1.26-5.55a3.13,3.13,0,0,0-.55-2.29c-.25-.39-.91-.92-1.06-1.38-.35-1.11.32-1.58.5-2.59.1-.56-.15-1.16-.06-1.72a1.63,1.63,0,0,1,.46-.8,2.87,2.87,0,0,0,.13-1.48c.07-.36.39-1,.45-1.24.3-1.5.26-2.7,1.09-4.12a9.31,9.31,0,0,1,3-3c2.51-1.86,3.15-5.38,4.41-8,1-2.08,2.1-5.79,1.19-8.09-.64-1.62-3-1.54-3.38-3.42a4,4,0,0,1,.73-2.72c.73-.83,1.65-.83,2.29-1.81.87-1.32.89-2,2.26-2.85a31.92,31.92,0,0,1,5-3c1.75-.73,2.3-.85,2.26-2.7,0-1.33,0-2.67,0-4,0-1.64-.62-2-1.31-3.41-2.87-6-2.17-21-.84-27.2.07-.31.37-.82.45-1.25a10,10,0,0,0,0-1.83,14.39,14.39,0,0,1,1.17-6.12,18,18,0,0,0,.66-2.88,5.49,5.49,0,0,1,.36-1.2c.15-.31.39-.57.54-.89s.38-.4.73-.71c0-.1,0-.19.07-.28l.28-.07c.09-.1.15-.25.21-.32a8.55,8.55,0,0,0,.68-.57,2.16,2.16,0,0,1,.07-.28l.28-.07c.1-.08.17-.19.27-.27a9.53,9.53,0,0,0,.8-.76,12.5,12.5,0,0,0,.39-4.63,1.73,1.73,0,0,0-.14-.58c0-.16,0-.34,0-.5s-.33-.49-.51-.74-.14-.85-.34-1.22-.43-.56-.59-.87c-.36-.74-.78-2-.26-2.75a2.29,2.29,0,0,1,2.27-.91c1.08,0,2.17,0,3.25,0a10.46,10.46,0,0,0,3-.15c.62-.18,5.35,4.35,5.95,4.76.36.24.44.59.73.91a1.43,1.43,0,0,0,.77.37,5.91,5.91,0,0,0,2.53.55,9.59,9.59,0,0,1,1.06-.19c.35,0,.53-.19.85-.21,0-.36.29-.56.44-.85a8.87,8.87,0,0,0,.12-2,1.74,1.74,0,0,0-.35-.88c-.17-.3-.34-.61-.54-.91s-.56-.54-.7-1a3.55,3.55,0,0,1-.16-1.47c0-.31-1.19-5.73-1.09-6a9.06,9.06,0,0,0,.24-1.5c.33-2.15,1.5-2.92,2.61-4.78.7-1.17,1.43-2.28,2.13-3.45a6.46,6.46,0,0,0,1.13-4.29c0-3.16-6-5.73-2.85-9.74.46-.58.7-.25,1.19-.65.29-.23.48-.71.79-.88a15.1,15.1,0,0,1,4.72-1.27c.88-.13,3.13-.16,3.66-1.11.26-.48.05-1.2.06-1.71a26.66,26.66,0,0,1,0-4c.3-1.67,1.51-1.95,3-2.41a44.18,44.18,0,0,1,6.77-1.57,2.9,2.9,0,0,0,2.29-1.14s.28-1.1.37-1.28A14.2,14.2,0,0,0,208.8,168c.46-3,.19-7.57,2.38-10.1.9-1,2.48-1.54,3.32-2.66a12.38,12.38,0,0,0,1.4-2.58,7.55,7.55,0,0,0,.42-3,35.62,35.62,0,0,1,.69-4.68c.27-1.35,1.17-2.65,1.48-4a14.9,14.9,0,0,1,.68-2.38,26.22,26.22,0,0,1,3.25-6c2.26-3.1,5.76-4.85,5.87-9.07.07-3.38-1.55-10.42.12-13.56a13.17,13.17,0,0,1,1.71-1.81c1.73-1.93,4-2.19,4.47-5.12.83-4.86.88-10,1.54-14.93.31-2.32-.24-4.74.21-7,.3-1.44,1.19-2.59,1.53-4,.16-.67.39-1.48.53-2.09s0-1.11.1-1.58a3.11,3.11,0,0,1,1.87-1.68,11.56,11.56,0,0,1,3.19-1.24c.18-1.75,1.13-2.9,1.83-4.54.62-1.46.35-2.81.65-4.31.33-1.68,1-2.95,1.05-4.72a23.21,23.21,0,0,1,.42-4.28c.19-1-.13-2.19.09-3.16a11.75,11.75,0,0,0,.61-3.36,2.83,2.83,0,0,1,.39-1.84c.48-.86,1.2-.83,1.79-1.46.5,0,.72-.24.67-.68,0-.2.07-.4.1-.6.42-.47.9-.48,1.08-1.09s-.09-1.16.08-1.74a7.87,7.87,0,0,1,1-1.85c1.14-1.63,2.85-2.93,4.16-4.42,1.81-2,2.14-3.46,2.12-6.13a32.83,32.83,0,0,1,0-4.1c.51-3.93,5.66-4,6.77-7.41.72-2.22-.16-5.05.23-7.36A45,45,0,0,0,267,0H0V645.46H55.6a1.77,1.77,0,0,0,.1-.33A34.4,34.4,0,0,1,56.35,641.59Z" style="fill:#441a06"/></svg>