<?xml version="1.0" encoding="utf-8"?>
<!-- Generator: Adobe Illustrator 21.0.0, SVG Export Plug-In . SVG Version: 6.00 Build 0)  -->
<svg version="1.1" id="svg" xmlns="http://www.w3.org/2000/svg" xmlns:xlink="http://www.w3.org/1999/xlink" x="0px" y="0px"
	 viewBox="0 35 400 350" style="enable-background:new 0 35 400 350;" xml:space="preserve">
<g id="svgg">
	<path id="path1" fill="#F9FAFA" d="M63.8,58C48.5,59.3,44.6,70.9,53,90.2c0.3,0.7,0.8,2,1.2,3c2.5,6.4,9,17,13,21.2
		c2.2,2.4,2.3,2.5-0.9-3c-1.4-2.5-4.6-8.9-5.7-11.6c-0.4-0.9-0.8-2-1-2.4C49,72.8,57.3,61.5,84.8,63.2c6.6,0.4,13,1.3,18,2.4
		c3.3,0.7,5.7,1.1,5.3,0.8c-0.7-0.6-15.1-5-19.7-6C77.3,58,70.8,57.4,63.8,58 M322,58c-4,0.3-6,0.6-10.6,1.6
		c-1.1,0.2-2.5,0.5-3.2,0.7c-7.1,1.4-25.2,7.2-19.8,6.3c0.8-0.1,1.6-0.3,2-0.4c1-0.3,6.2-1.3,9-1.7c1.5-0.2,4.2-0.6,6-0.9
		c7-1,19.8-0.5,24.5,1.1c9.2,3.1,12.6,11,9.6,22.6c-0.4,1.4-0.8,3.1-0.9,3.7s-0.4,1.2-0.6,1.3c-0.2,0.1-0.4,0.5-0.4,0.9
		c0,2-6,14.9-9.9,21.3c-2.2,3.6,0.1,1.3,4.2-4.1c3.5-4.6,8.6-14.1,10.9-20.1c0.5-1.3,1.1-2.8,1.2-3.2C352.5,66.7,344.7,56.4,322,58
		 M188.4,82.8c-7.2,0.9-14.6,3-19,5.3c-1.3,0.7-2.8,1.4-3.3,1.7c-1.1,0.5-1.1,0.6,0,2.9c4.5,8.9-1.6,15.9-7.8,9
		c-0.9-1-1.6-1.9-1.6-2.1c0-0.8-1.1-0.2-1.8,1c-5.1,8.1-6.6,19.1-4.8,33.3l0.2,1.6l4.9,0.2c9,0.4,14.7,2.7,20.2,8.2
		c7.5,7.4,14.9,9.6,16.7,4.9c2.3-5.7,2.7-10.2,1.1-14.6c-1-3-0.2-3.2,1.8-0.5c1.8,2.4,4.2,6.9,4.6,8.7c0.4,1.6,0.6,1.3,2.3-2.1
		c1.7-3.5,5.5-8.4,6.5-8.4c0.4,0,0.5,0.2,0.3,0.7c-2,4.7-2.5,8.3-1.8,12.4c0.9,5.7,3.4,7.6,7.5,5.9c5.2-2.1,7.1-3.4,10.9-7.3
		c5.1-5.1,11-7.5,19.9-7.9l4.9-0.2l0.2-1.2c1.5-9,1.3-17-0.8-24.8c-0.7-2.5-3.7-9.1-4.2-9.3c-0.2-0.1-0.3-0.4-0.3-0.7
		c0-1.1-1.1-0.9-1.6,0.3c-0.3,0.7-1.2,1.9-2,2.7c-5.9,5.9-11.4-1-7.3-9.3c0.7-1.4,1.3-2.7,1.3-2.8c0-0.3-5.2-2.8-7.8-3.8
		c-4.8-1.9-11.5-3.3-18.2-3.9l-3-0.3l-0.5,2.1c-2.1,8.4-9,8.2-11.2-0.4C194.3,82.2,194,82.1,188.4,82.8 M109.4,94.3
		c-9.1,5.9-11.3,7.6-18.1,14.3c-5.7,5.5-14.2,16.2-16.8,21c-0.4,0.8-1.7,2.9-2.7,4.8c-5.1,8.8-8.7,18.2-9.8,25.2
		c-0.6,3.9-0.6,3.9,4,4.2l3.7,0.3l-0.2,1.4c-0.1,0.8-0.4,2.2-0.6,3.2c-3.6,17.5-3.7,36-0.3,47.4c0.2,0.8,0.6,0.8,8.1,0.8
		c12.6,0,27.6,4.7,33.4,10.3c0.3,0.3,0.9,0.8,1.4,1.1c4.7,3.3,5.3,4.2,3.9,6.4c-2.7,4.3-2.9,15.8-0.3,13.5c1.5-1.3,3.8-2.3,5.4-2.3
		s2.5,0.4,5,2.2l0.9,0.7v-2.5c0-1.4,0.2-3.2,0.4-4.1c0.2-0.9,0.6-2.4,0.8-3.2l1.2-3.4c0.5-1,0.6-1.6,1.3-3c1.3-2.7,1.3-3.6,0-6.7
		c-0.2-0.4-0.6-1.4-0.8-2.1c-1.9-4.9-7.3-10.6-16.8-17.7c-5.5-4.1-10.7-10-12.1-13.9c-1.3-3.7-4,2.5-3.9,9c0.1,3.8-0.1,4-2.2,2.9
		c-3.4-1.9-8.7-3.3-13.3-3.4l-3.6-0.1l-0.5-1.6c-0.3-1-0.5-4.9-0.5-10.8c0-8.6,0.2-11.5,1.2-18.2c0.6-3.8,1.7-8.7,2.6-11.5
		c0.7-2.1,0.6-2.3-1.6-2.7c-0.9-0.1-2.7-0.4-3.9-0.7l-2.2-0.4l0.2-2.3c0.2-2,1.3-6,2.2-8.3c4.8-11.5,13.3-25.5,21.7-35.6
		c0.4-0.4,1.3-1.6,2.1-2.6c2.6-3.2,8.4-9,11.7-11.7C112.4,92.9,111.5,92.9,109.4,94.3 M289.1,93.5c1.3,0.5,8.6,7.7,12.1,11.7
		c3.6,4.3,3.9,4.7,6.1,7.6c1.1,1.4,2.2,2.9,2.5,3.3c6.4,7.9,15.8,25.9,17.8,34.4c1,4.2,1,4.2-2.3,4.8c-3.7,0.7-5.4,1.2-5.2,1.5
		c0.8,1.3,2.7,10,3.4,15.6c1.3,9.8,1.3,26.4,0,27.7c-0.2,0.2-2,0.5-3.8,0.5c-4.1,0.1-9.2,1.4-12.6,3.2c-2.8,1.5-3.2,1.3-2.8-1.3
		c0.5-3.2-1.6-11.7-2.9-11.7c-0.2,0-0.8,0.8-1.2,1.8c-1.8,4.1-6.3,9.1-12.2,13.6c-4.8,3.6-9.9,7.9-11,9.2c-3.7,4.3-4.9,6.3-6.4,11
		l-1.2,3.5l1.2,2.5c2.1,4.4,3.4,8.9,3.8,13.2c0.3,3.1,0.2,3,2.4,1.5c2.5-1.7,4.6-1.7,7.4,0.2c2.5,1.7,2.2,1.7,2.8,0.1
		c1.2-3.3,0.2-9.9-1.8-12.9c-1.2-1.8-1.3-1.6,0.5-3.3c9.6-9.2,23.2-14.3,38-14.3h8.1l0.4-1c0.4-1.1,0.9-3.2,1.7-7
		c0.8-3.7,0.6-23.1-0.2-29c-0.9-6.1-1.4-9-1.9-11.2c-0.2-1-0.5-2.5-0.7-3.3l-0.2-1.5h2.2c1.2,0,3.1-0.2,4.2-0.3l2-0.3l-0.1-1.6
		c-0.9-11.3-11-31.9-21.4-44.2c-0.7-0.8-2-2.4-3-3.5c-6.8-8.1-22.8-21-25.7-20.8C288.8,93.3,288.8,93.3,289.1,93.5 M202.3,100.6
		c2.1,1.1,4.1,4.8,4.1,7.6c0,6.9-6,11.1-9.6,6.7C191.9,108.9,196.4,97.4,202.3,100.6 M143.8,105.1c-3.7,5.8-7,15.1-7,20.1
		c0,2.3,0.2,2.2-4.8,2.8c-4.6,0.6-9,1.5-11.4,2.3c-1.8,0.6-7.4,3.2-7.4,3.5c0,0.1,2.7,0,6.1,0c7.8-0.2,18.1,1,24.3,3
		c0.9,0.3,0.9,0.2,0.7-0.7c-2.1-7.5-1.8-24.4,0.6-30.8C145.6,103.2,145,103.2,143.8,105.1 M255.8,104.1c1.7,5.8,2.2,9.9,2.2,18.2
		c0,7.1-0.2,9.3-1.3,12.8c-0.5,1.8-0.5,1.8,2.9,0.9c5.8-1.6,11.7-2.2,20.1-2.2c4.3,0,7.9,0,7.9-0.1c0-1.5-10.3-4.6-19-5.7
		c-4.2-0.5-4.6-0.9-4.6-3.7c0-3.4-2.6-11.7-5.1-16.3C256.5,103.8,255.2,102,255.8,104.1 M179.8,115.8c3.7,2.8,5.5,9.4,3.5,13.1
		c-2.6,5.1-9.9,0.9-11.4-6.6C170.7,116.1,175.2,112.3,179.8,115.8 M227.2,115.6c5.1,5.4-3,19.1-8.6,14.7c-2.3-1.8-2.8-5.4-1.4-9.2
		C219.3,115.4,224.4,112.6,227.2,115.6 M112.7,142.3c-0.5,0.5-0.3,6.7,0.3,9c2.1,8.2,7.4,12.4,18.8,15.1c4.2,1,8.3,2,10,2.4
		c1.9,0.5,4.5,1.9,5.1,2.9l0.6,0.8l0.4-0.8c2.3-4.4-1-7.6-10.2-9.9c-16.5-4-23-9-23-17.6C114.8,142.5,113.5,141.4,112.7,142.3
		 M286.4,142.8c-0.2,0.4-0.4,1.3-0.4,1.9c0,6.5-5.1,11.7-14.8,14.9c-3.8,1.3-4.7,1.5-8,2.3c-9,2-12.6,5.4-10.2,9.8l0.5,1l0.5-0.9
		c0.5-1,3-2.4,5.2-3c1.7-0.5,7.6-1.8,10-2.3c10.8-2.2,17.2-7.5,18.8-15.4C289,145.6,287.9,139.9,286.4,142.8 M291.6,147.5
		c-0.1,11.6-6.8,18.3-21.8,21.9c-2.4,0.6-5.2,1.3-6.2,1.5c-4.4,1.1-7,2.2-8.4,3.6c-1.8,1.9-2.6,1.9-5.2,0.1
		c-2.6-1.8-2.6-1.8-3.8,0.4c-2.9,4.9-6,19.4-4.1,19.4c1.8,0,12.8,9.6,15.8,13.8c0.6,0.9,1.3,1.7,1.4,1.8c0.6,0.5,2.8,4.1,4,6.4
		l1.3,2.6l1.3-3c2.2-5.1,5.8-9.6,12.6-15.5c12.7-11.2,15.6-14.8,18.2-22.8c1.1-3.3,1.3-12.4,0.4-16.6c-0.4-1.8-0.8-3.8-1-4.6
		c-0.4-1.9-3.2-10.1-3.6-10.6c-0.2-0.2-0.4-0.8-0.5-1.2C291.8,144.2,291.7,145.4,291.6,147.5 M108.6,145.5c-0.2,0.6-0.7,1.7-0.9,2.5
		c-0.3,0.8-0.6,1.8-0.8,2.2c-3.1,8.1-4.4,18.8-3.1,25c0.7,3.2,1,4.2,2.8,8.1c1.4,3,6.3,8.6,11.2,12.9c11.9,10.3,18.2,17.9,18.2,22
		c0,1.2,0.6,0.5,2-2.3c3.4-7,17.4-21.5,20.9-21.5c0.6,0,0.4-4.6-0.2-8c-1.4-7.3-4.9-14.9-6-13.2c-1.6,2.5-5.1,3.2-6.9,1.3
		c-1.4-1.5-3.9-2.5-8.4-3.6c-1-0.2-3.8-0.9-6.2-1.5c-14.7-3.6-21-9.6-21.8-21.3C109,144.8,108.9,144.5,108.6,145.5 M151.7,145.6
		c-1.6,0.5-1.6,0.9-0.1,2c2.8,2,7.3,8.2,9.5,12.9c4.8,10.3,6.1,19.4,6.1,44.6c0,38.3,3.6,48,16.6,44.9c0.9-0.2,2.7-0.7,4-1
		c4.2-1.1,7.1-0.8,10.9,1.1l1.7,0.8l1.7-0.8c3.8-1.9,6.7-2.1,10.9-1.1c4.7,1.2,5.6,1.4,7.6,1.6c4.7,0.5,8.7-3.6,10.7-11
		c0.2-0.7,0.5-2,0.8-2.8c1.1-4.2,1.6-12.2,1.6-29.8c0-34.1,2.9-46.3,13.8-57.5c3.5-3.6,3.5-3.5,1.4-4.1c-8.5-2.3-18.4,4.3-19.5,13
		c-0.4,3.7-2.9,1.8-3.6-2.6l-0.2-1.5l-1.4,1.4c-8.9,8.4-36.1,8.7-46.6,0.5l-2-1.6l-0.2,1.6c-0.2,1.8-1.8,4.5-2.5,4.5
		c-0.3,0-0.7-1-1-2.3C169.7,149,160.5,143.1,151.7,145.6 M154.6,208.5c-4.8,4.6-10.5,12.6-13.2,18.7c-0.2,0.6-0.9,1.9-1.4,3
		s-1,2.4-1.2,2.8c-0.2,0.4-0.5,1.3-0.7,1.8c-2.3,5.1-5.5,17.6-4.7,18.3c0.3,0.2,4.6,1,9.7,1.7c12.1,1.7,11.7,1.6,10.8,2.3
		c-0.4,0.3-1.7,0.6-3,0.8c-1.2,0.1-3.3,0.4-4.7,0.6c-1.3,0.2-3.8,0.6-5.6,0.8c-1.8,0.2-4.4,0.7-6,0.9l-2.8,0.4l0.2,2.8
		c0.1,1.6,0.4,3.4,0.5,4.2l0.3,1.4l3.4-0.3c1.9-0.1,5.2-0.4,7.4-0.6c9.4-0.9,10.2-0.9,10.2-0.5s-0.5,0.7-3,1.7
		c-0.4,0.2-1.4,0.6-2.2,0.9s-1.9,0.7-2.4,0.9c-0.5,0.2-1.7,0.6-2.6,1c-0.9,0.4-3.2,1.3-5.1,2c-1.9,0.7-3.5,1.5-3.5,1.6
		c0,0.9,5.3,8,6,8c0.4,0,15.9-7.8,16.6-8.3c0.8-0.6,2.3-0.9,2.3-0.5s-0.7,1.1-8.9,8.6c-5.8,5.3-5.7,4.8-1.6,7.2
		c14,8.2,28.5,10.3,38.4,5.6c12.6-6.1,9.6-17.6-7-26.8c-11.1-6.1-16.1-12.6-16.1-21c0-1.2-0.2-2-0.6-2.4c-1.7-1.4-3.6-7.5-4.6-14.6
		c-0.5-3.6-1.2-16-1-16.7c0.4-1.3,0.6-9.9,0.2-9.9C158.6,204.8,156.7,206.5,154.6,208.5 M241.8,206.1c1,4.9,0.5,20.2-0.9,28.5
		c-0.8,4.6-2.4,9.1-4.1,11.5c-0.4,0.6-0.8,1.7-0.8,2.7c0,8.3-4.2,13.7-16.4,20.9c-8.5,5-12,8.6-14,14.2c-1.5,4.1-0.8,6.1,3.4,9.7
		c1.8,1.6,2.6,2.1,5.8,3.4c9.1,3.9,25,0.9,37.4-7c2.9-1.9,2.9-1.9,1.2-3.3c-1.2-1-6.8-6.1-11.1-10.1c-2.3-2.1-1.9-2.6,0.9-1.1
		c6.8,3.6,16.2,8.2,16.6,8.2c0.8,0,6.2-7.7,5.7-8.1c-0.3-0.3-16.6-6.7-17-6.7c-0.2,0-0.9-0.4-1.4-0.8l-1-0.8l3.6,0.2
		c2,0.1,5.4,0.4,7.6,0.6s5.5,0.5,7.3,0.6l3.3,0.2l0.4-2.1c0.2-1.1,0.4-3,0.4-4.2v-2.1l-3.1-0.5c-1.7-0.3-4.1-0.6-5.3-0.8
		c-2.6-0.4-7.3-1.1-10.4-1.4c-2.3-0.2-3.6-0.8-3.1-1.2c0.1-0.1,4.8-0.9,10.4-1.7c5.6-0.8,10.3-1.6,10.5-1.8s0-1.9-0.6-4.2
		c-1.2-5-3-10.6-5.6-17.4c-3.5-8.9-10.7-19.4-17.4-25C241.8,204.5,241.4,204.4,241.8,206.1 M175.2,307.3c-0.7,1.2-1.2,5-1.4,10.8
		l-0.2,5.1l3-1c12.6-4,35.1-4,47.7,0l2.9,0.9v-4.7c0-10.4-2.3-15.3-4-8.8c-0.3,1-0.6,2.3-0.8,2.8c-0.2,0.6-0.6,2-1,3.2
		c-1.2,3.9-1.7,4.1-3.1,0.8c-0.9-2.2-1.4-2.4-7.8-3.7c-8.7-1.8-15.1-1.6-24.2,0.9c-2.5,0.7-2.6,0.7-3.8,3c-1.6,3-1.9,2.9-3-0.6
		c-0.5-1.6-1-3.4-1.2-3.9s-0.6-1.8-0.8-2.8C176.7,306.3,176,305.7,175.2,307.3 M154.8,326.1c0,7.5,2.8,12.6,9.2,17
		c2.4,1.7,5.3,4.5,7.6,7.6c8.1,10.7,26.8,15,42.7,9.8c6.8-2.2,12.4-6.1,15.7-10.9c1.2-1.8,5.4-6,6-6s5.3-3.9,6.3-5.3
		c2.3-3,3.7-7.8,3.5-11.7l-0.1-2.4l-0.6,1.2c-4.9,9.8-14.1,12.5-32.8,9.8c-3.7-0.5-7.5-0.8-12-0.8s-8.3,0.3-12,0.8
		c-17.9,2.6-27.8,0-32.2-8.8C155,324,154.8,323.9,154.8,326.1"/>
	<path id="path2" fill="#7FBADE" d="M129,145.4c-3.5,9.2,9,16.1,13.4,7.3c1.9-3.7,1.3-6.8-1.2-6.9c-1.2-0.1-1.4,0.1-1.7,1.2
		c-1,3.8-6,3-6.1-1.1C133.3,142.9,130.1,142.5,129,145.4 M268.3,143.9c-0.7,0.2-0.8,0.5-0.7,2.2c0.2,3.8-4.7,4.4-6.2,0.8
		c-0.5-1.3-0.7-1.4-1.9-1.1c-1.8,0.4-2,0.7-2,2.9c0.2,10.6,14.7,10.7,15,0.1C272.5,144.8,271.1,143.1,268.3,143.9"/>
</g>
</svg>
